# xmcd
#
# Track frame offsets:
#	150
#	18337
#	35985
#	50200
#	64240
#	80465
#	97220
#	111580
#	126815
#	144830
#	160760
#	177737
#	190410
#	208630
#
# Disc length: 3036 seconds
#
# Revision: 1
# Processed by: cddbd v1.4PL0 Copyright (c) Steve Scherf et al.
# Submitted via: audiograbber 1.82.00
#
DISCID=d80bda0e
DTITLE=Various Artist - Country Hot Hits Vol 2
DYEAR=1992
DGENRE=Country
TTITLE0=Trisha Yearwood - Walkaway Joe
TTITLE1=Steve Wariner - Crash Course In The Blues
TTITLE2=Pam Tillis - Shake The Sugar Tree
TTITLE3=Mark Chesnut - Bubba Shot The Jukebox
TTITLE4=Lorrie Morgan - Watch Me
TTITLE5=Mark Collie - Even The Man In The Moon Is Crying
TTITLE6=Radney Foster - Just Call Me LOnesome
TTITLE7=Marty Stuart - Now That's country
TTITLE8=John Anderson - Seminole Wind
TTITLE9=George Strait - I Cross My Heart
TTITLE10=Vince Gill - Don't Let our Love Start Slipping away
TTITLE11=George Jones - I Don't Need Your Rockin' Chair
TTITLE12=McBride and the Ride - Going Out Of My MindTrack 13
TTITLE13=Travis Tritt - Lord Have Mercy On the Working Man
EXTD=
EXTT0=
EXTT1=
EXTT2=
EXTT3=
EXTT4=
EXTT5=
EXTT6=
EXTT7=
EXTT8=
EXTT9=
EXTT10=
EXTT11=
EXTT12=
EXTT13=
PLAYORDER=
